<?xml version="1.0" standalone="no"?>
<!DOCTYPE svg PUBLIC "-//W3C//DTD SVG 20010904//EN"
 "http://www.w3.org/TR/2001/REC-SVG-20010904/DTD/svg10.dtd">
<svg version="1.0" xmlns="http://www.w3.org/2000/svg"
 width="185.000000pt" height="185.000000pt" viewBox="0 0 185.000000 185.000000"
 preserveAspectRatio="xMidYMid meet">

<g transform="translate(0.000000,185.000000) scale(0.100000,-0.100000)"
fill="#000000" stroke="none">
<path d="M775 1772 c-58 -18 -125 -58 -194 -118 -97 -84 -111 -98 -108 -108 2
-6 -2 -15 -8 -21 -33 -28 -65 -209 -52 -295 4 -30 8 -80 9 -110 0 -46 2 -50 8
-25 15 56 33 180 39 265 7 92 28 145 58 147 34 3 144 43 216 80 186 93 272 85
394 -37 85 -86 100 -122 86 -218 -6 -43 -8 -129 -6 -192 4 -97 1 -124 -16
-172 -37 -106 -121 -199 -173 -190 -10 2 -18 -1 -18 -6 0 -11 -45 -32 -70 -32
-10 0 -23 -8 -29 -17 -5 -10 -13 -15 -16 -11 -4 4 0 14 9 23 9 9 16 23 16 31
0 8 6 13 13 11 6 -1 11 4 10 11 -2 6 2 12 7 12 6 0 10 9 10 20 0 14 -5 18 -17
14 -13 -4 -13 -2 2 7 11 6 32 23 46 36 15 13 35 23 45 21 15 -2 20 4 22 28 3
27 -1 32 -25 38 -87 21 -101 27 -106 46 -3 10 -1 20 3 22 11 4 17 23 8 23 -3
0 -18 11 -31 23 -19 18 -31 22 -49 16 -12 -4 -45 -6 -72 -5 -34 1 -55 -4 -68
-15 -17 -16 -17 -18 -1 -37 10 -11 13 -17 6 -14 -6 4 -14 3 -18 -3 -4 -6 -10
-8 -15 -5 -5 3 -11 1 -15 -5 -3 -5 -17 -10 -31 -10 -14 0 -35 -5 -47 -11 -22
-12 -22 -12 -3 10 11 11 15 21 9 21 -15 0 -53 -39 -53 -55 0 -18 34 -37 53
-29 8 3 21 -6 31 -21 10 -15 23 -24 30 -22 7 3 39 -3 71 -14 70 -23 65 -23 65
-3 0 8 -4 13 -9 10 -12 -8 -101 24 -101 36 0 10 70 7 179 -7 59 -8 57 -23 -5
-31 -21 -2 -43 -9 -49 -15 -7 -8 4 -10 40 -5 42 4 46 4 23 -5 -16 -6 -28 -15
-28 -20 0 -5 -42 -7 -92 -6 -105 4 -118 1 -118 -21 0 -8 3 -13 6 -9 4 3 13 0
21 -8 14 -14 38 -19 76 -16 9 1 17 -2 17 -6 0 -5 16 -7 35 -5 39 5 41 2 23
-31 -20 -34 -32 -38 -45 -14 -10 19 -12 19 -13 4 0 -11 -5 -15 -11 -11 -6 3
-16 0 -21 -7 -7 -10 -7 -7 -3 9 7 23 -12 28 -27 7 -5 -6 -8 -5 -8 3 0 7 -5 10
-11 6 -9 -5 -10 1 -5 21 7 26 6 27 -10 14 -21 -17 -14 -18 -48 8 -16 13 -33
20 -38 17 -5 -4 -22 6 -37 20 l-28 27 -164 -57 c-90 -31 -182 -63 -205 -71
-22 -8 -64 -35 -92 -59 l-52 -46 0 -304 0 -304 91 0 c99 0 112 7 144 75 13 27
14 28 15 7 0 -13 7 -36 15 -52 l16 -30 784 0 785 0 0 191 c0 172 -2 195 -19
223 -29 47 -189 189 -250 222 -115 63 -138 74 -201 95 -40 14 -81 36 -106 60
-23 20 -56 45 -73 53 -17 9 -31 18 -31 21 0 2 11 20 24 40 14 20 30 62 36 93
6 31 13 69 16 85 3 15 9 25 14 22 5 -3 11 16 15 42 3 27 11 79 17 118 14 91 4
192 -21 219 -10 12 -21 30 -25 41 -9 29 -154 177 -201 206 -86 53 -180 67
-270 41z m130 -702 c3 -5 1 -10 -4 -10 -6 0 -11 5 -11 10 0 6 2 10 4 10 3 0 8
-4 11 -10z m-124 -24 c6 3 22 3 35 0 20 -5 23 -10 15 -20 -14 -16 -91 1 -91
20 0 17 24 24 28 7 2 -7 8 -11 13 -7z m37 -90 c115 -7 149 -22 44 -19 -203 5
-225 6 -202 10 14 3 29 8 34 13 5 5 14 7 20 5 6 -2 53 -6 104 -9z m-195 -253
c52 -47 128 -85 179 -89 23 -2 49 -24 42 -35 -3 -5 3 -10 13 -11 10 0 25 -2
33 -2 8 -1 30 6 49 17 27 15 32 15 28 3 -5 -13 -2 -13 21 -5 14 6 33 15 40 22
11 8 10 1 -3 -28 -9 -22 -17 -44 -18 -50 -3 -16 -72 -64 -113 -78 -25 -9 -69
-12 -124 -10 -165 8 -209 54 -235 245 -8 56 -17 114 -21 128 -4 20 0 18 24
-15 16 -22 54 -63 85 -92z m526 70 c-5 -25 -12 -49 -15 -52 -4 -3 -4 6 0 21 5
23 3 27 -11 22 -11 -4 -14 -3 -7 3 6 4 16 18 23 31 17 33 19 27 10 -25z m-286
-27 c5 -11 -24 -46 -38 -46 -10 0 -5 36 7 48 16 16 25 15 31 -2z"/>
<path d="M512 1367 c-31 -33 -29 -49 4 -37 35 14 111 13 137 -2 27 -14 96 -18
103 -6 10 15 -16 33 -75 51 -79 25 -142 22 -169 -6z"/>
<path d="M1015 1359 c-39 -6 -66 -16 -80 -30 -15 -17 -16 -20 -4 -16 9 3 21 1
27 -5 7 -7 31 -8 69 -3 71 10 99 8 137 -11 16 -8 30 -14 32 -14 7 0 -19 60
-30 69 -19 16 -85 20 -151 10z"/>
<path d="M558 1290 c-10 -6 -18 -16 -18 -21 0 -6 10 -3 22 5 12 9 38 16 58 15
31 0 29 -2 -28 -20 -64 -20 -75 -38 -23 -37 22 1 28 5 24 17 -3 12 -2 12 7 -1
6 -11 23 -18 42 -18 23 0 29 -4 24 -15 -3 -9 0 -15 8 -15 7 0 19 7 26 15 7 8
18 15 25 15 21 0 27 32 10 49 -19 19 -151 27 -177 11z"/>
<path d="M908 1270 c-13 -4 -24 -15 -26 -27 -4 -25 34 -64 55 -56 12 5 12 7 1
14 -9 6 -4 9 15 9 16 0 26 4 22 9 -3 5 -1 12 4 16 5 3 14 -2 19 -11 7 -12 19
-15 45 -12 20 2 33 0 31 -4 -3 -4 6 -8 20 -8 14 0 29 0 33 -1 4 0 9 3 10 8 4
12 -78 43 -117 44 -28 0 -31 2 -15 8 15 6 9 9 -27 12 -26 2 -57 2 -70 -1z"/>
<path d="M1081 1256 c2 -2 15 -9 29 -16 23 -12 24 -12 11 3 -7 10 -20 17 -29
17 -8 0 -13 -2 -11 -4z"/>
<path d="M421 1055 c1 -19 18 -51 18 -35 0 8 -4 22 -9 30 -5 8 -9 11 -9 5z"/>
<path d="M435 991 c-3 -5 -1 -12 5 -16 5 -3 10 1 10 9 0 18 -6 21 -15 7z"/>
</g>
</svg>
